<?xml version="1.0" encoding="UTF-8"?>
<svg width="24" height="24" viewBox="0 0 24 24" xmlns="http://www.w3.org/2000/svg">
    <defs>
        <linearGradient id="brandGradient" x1="50%" y1="0%" x2="50%" y2="100%">
            <stop offset="0%" style="stop-color:#02FC9F"/>
            <stop offset="100%" style="stop-color:#015E5C"/>
        </linearGradient>
    </defs>
    <path d="M23.5 6.2c-.3-1-1.1-1.8-2.1-2.1C19.5 3.6 12 3.6 12 3.6s-7.5 0-9.4.5c-1 .3-1.8 1.1-2.1 2.1C0 8.1 0 12 0 12s0 3.9.5 5.8c.3 1 1.1 1.8 2.1 2.1 1.9.5 9.4.5 9.4.5s7.5 0 9.4-.5c1-.3 1.8-1.1 2.1-2.1.5-1.9.5-5.8.5-5.8s0-3.9-.5-5.8zm-14 9.4V8.4l6.3 3.6-6.3 3.6z"
          fill="url(#brandGradient)"/>
</svg> 